<?xml version="1.0" encoding="UTF-8" standalone="no"?>
<!DOCTYPE svg PUBLIC "-//W3C//DTD SVG 1.1//EN" "http://www.w3.org/Graphics/SVG/1.1/DTD/svg11.dtd">
<svg width="100%" height="100%" viewBox="0 0 220 35" version="1.1" xmlns="http://www.w3.org/2000/svg" xmlns:xlink="http://www.w3.org/1999/xlink" xml:space="preserve" xmlns:serif="http://www.serif.com/" style="fill-rule:evenodd;clip-rule:evenodd;stroke-linejoin:round;stroke-miterlimit:2;">
    <g transform="matrix(1.06583,0,0,1.06583,-64.5468,-15.9228)">
        <g transform="matrix(31.5685,0,0,31.5685,264.267,42.6676)">
        </g>
        <text x="106.519px" y="42.668px" style="font-family:'Lato-Regular', 'Lato', sans-serif;font-size:31.568px;fill:rgb(242,242,242);">E<tspan x="127.228px 158.639px 180.295px 202.993px 223.701px 242.8px " y="42.668px 42.668px 42.668px 42.668px 42.668px 42.668px ">MPRESA</tspan></text>
    </g>
    <g transform="matrix(0.846557,0,0,0.846557,-39.0473,1.6504)">
        <path d="M72.907,12.898L68.034,21.248L75.698,34.469L75.158,35.41C74.739,36.088 74.162,36.656 73.476,37.063C71.225,38.373 68.32,37.633 67.008,35.41L50.311,6.744C49.457,5.306 49.457,3.51 50.311,2.071C51.155,0.625 52.709,-0.267 54.384,-0.266L80.571,-0.266L75.955,7.685L60.112,7.685L63.161,12.898L72.907,12.898ZM91.914,2.071C92.739,3.497 92.739,5.261 91.914,6.687L78.778,29.199L74.16,21.248L86.699,-0.266L87.838,-0.266C89.516,-0.275 91.075,0.619 91.914,2.071Z" style="fill:rgb(114,235,173);"/>
    </g>
</svg>
