<?xml version="1.0" encoding="UTF-8" standalone="no"?>
<!DOCTYPE svg PUBLIC "-//W3C//DTD SVG 1.1//EN" "http://www.w3.org/Graphics/SVG/1.1/DTD/svg11.dtd">
<svg width="100%" height="100%" viewBox="0 0 200 160" version="1.1" xmlns="http://www.w3.org/2000/svg" xmlns:xlink="http://www.w3.org/1999/xlink" xml:space="preserve" xmlns:serif="http://www.serif.com/" style="fill-rule:evenodd;clip-rule:evenodd;stroke-linejoin:round;stroke-miterlimit:2;">
    <g transform="matrix(1.14084,0,0,1.24801,-16.4879,-21.1464)">
        <path d="M21.954,126.044L21.954,36.048C21.954,33.47 23.074,30.997 25.068,29.174C27.062,27.351 29.767,26.327 32.587,26.327L171.626,26.327C174.447,26.327 177.151,27.351 179.146,29.174C181.14,30.997 182.26,33.47 182.26,36.048L182.26,126.044C182.26,128.622 181.14,131.095 179.146,132.918C177.151,134.741 174.447,135.765 171.626,135.765L32.587,135.765C29.767,135.765 27.062,134.741 25.068,132.918C23.074,131.095 21.954,128.622 21.954,126.044ZM178.608,49.002L178.608,36.048C178.608,34.355 177.872,32.732 176.563,31.535C175.254,30.338 173.478,29.666 171.626,29.666L32.587,29.666C30.736,29.666 28.96,30.338 27.651,31.535C26.341,32.732 25.606,34.355 25.606,36.048L25.606,40.408L109.842,40.408C111.406,40.408 112.921,40.9 114.135,41.8L122.97,48.357C123.533,48.774 124.236,49.002 124.961,49.002L178.608,49.002ZM25.606,43.747L25.606,126.044C25.606,127.737 26.341,129.36 27.651,130.557C28.96,131.754 30.736,132.426 32.587,132.426L171.626,132.426C173.478,132.426 175.254,131.754 176.563,130.557C177.872,129.36 178.608,127.737 178.608,126.044L178.608,52.341L124.961,52.341C123.397,52.341 121.882,51.849 120.668,50.949L111.833,44.392C111.27,43.975 110.567,43.747 109.842,43.747L25.606,43.747ZM83.194,103.098L63.974,103.098C62.966,103.098 62.147,102.35 62.147,101.428C62.147,100.507 62.966,99.759 63.974,99.759L140.24,99.759C141.248,99.759 142.066,100.507 142.066,101.428C142.066,102.35 141.248,103.098 140.24,103.098L103.725,103.098L103.725,112.266C103.725,117.445 99.125,121.65 93.46,121.65C87.794,121.65 83.194,117.445 83.194,112.266L83.194,103.098ZM91.633,103.098L86.846,103.098L86.846,112.266C86.846,115.602 89.809,118.311 93.46,118.311C97.11,118.311 100.073,115.602 100.073,112.266L100.073,103.098L95.286,103.098L95.286,112.07C95.286,112.992 94.467,113.74 93.46,113.74C92.452,113.74 91.633,112.992 91.633,112.07L91.633,103.098ZM126.851,76.297L121.272,71.197C120.559,70.545 120.559,69.487 121.272,68.836C121.984,68.184 123.141,68.184 123.854,68.836L129.434,73.936L135.013,68.836C135.726,68.184 136.883,68.184 137.596,68.836C138.308,69.487 138.308,70.545 137.596,71.197L132.016,76.297L137.596,81.397C138.308,82.049 138.308,83.107 137.596,83.758C136.883,84.41 135.726,84.41 135.013,83.758L129.434,78.658L123.854,83.758C123.141,84.41 121.984,84.41 121.272,83.758C120.559,83.107 120.559,82.049 121.272,81.397L126.851,76.297ZM72.198,76.297L66.618,71.197C65.905,70.545 65.905,69.487 66.618,68.836C67.331,68.184 68.488,68.184 69.201,68.836L74.78,73.936L80.36,68.836C81.072,68.184 82.23,68.184 82.942,68.836C83.655,69.487 83.655,70.545 82.942,71.197L77.363,76.297L82.942,81.397C83.655,82.049 83.655,83.107 82.942,83.758C82.23,84.41 81.072,84.41 80.36,83.758L74.78,78.658L69.201,83.758C68.488,84.41 67.331,84.41 66.618,83.758C65.905,83.107 65.905,82.049 66.618,81.397L72.198,76.297Z"/>
    </g>
</svg>
