<?xml version="1.0" encoding="UTF-8" standalone="no"?>
<!DOCTYPE svg PUBLIC "-//W3C//DTD SVG 1.1//EN" "http://www.w3.org/Graphics/SVG/1.1/DTD/svg11.dtd">
<svg width="100%" height="100%" viewBox="0 0 50 50" version="1.1" xmlns="http://www.w3.org/2000/svg" xmlns:xlink="http://www.w3.org/1999/xlink" xml:space="preserve" xmlns:serif="http://www.serif.com/" style="fill-rule:evenodd;clip-rule:evenodd;stroke-linejoin:round;stroke-miterlimit:2;">
    <path d="M42.1,7.8C46.6,12.4 49.1,18.4 49.1,24.8C49.1,38 38.3,48.8 25.1,48.8C21,48.8 17.1,47.8 13.6,45.9L0.9,49.2L4.3,36.8C2.2,33.2 1.1,29 1.1,24.8C1.1,11.6 11.9,0.8 25.1,0.8C31.5,0.8 37.6,3.3 42.1,7.8ZM25.1,44.7C36.1,44.7 45,35.8 45,24.8C45,19.5 43,14.3 39.2,10.6C35.4,6.9 30.4,4.8 25.1,4.8C14.1,4.8 5.2,13.7 5.2,24.7C5.1,28.5 6.2,32.1 8.2,35.3L8.7,36.1L6.7,43.5L14.2,41.5L14.9,41.9C18,43.7 21.5,44.7 25.1,44.7ZM37.2,30.5C37.3,30.8 37.3,32 37.1,33.2C36.6,34.6 34.3,35.8 33.1,36C32,36.2 30.7,36.3 29.3,35.8C28.4,35.5 27.3,35.1 25.9,34.5C19.9,32 16,25.9 15.7,25.5C15.4,25.1 13.3,22.2 13.3,19.3C13.3,16.4 14.9,14.9 15.4,14.3C16,13.7 16.6,13.6 17,13.6L18.1,13.6C18.4,13.6 18.9,13.4 19.4,14.6C19.9,15.8 21.1,18.7 21.2,19C21.3,19.3 21.4,19.7 21.2,20.1C21,20.5 20.9,20.8 20.6,21.1C20.3,21.4 20,21.8 19.7,22.1C19.4,22.4 19.1,22.7 19.4,23.3C19.7,23.9 20.9,25.9 22.7,27.5C25,29.6 26.9,30.2 27.5,30.5C28.1,30.8 28.5,30.8 28.8,30.4C29.2,30.1 30.3,28.7 30.7,28.1C31.1,27.5 31.5,27.6 32,27.8C32.6,28 35.5,29.5 36.1,29.8C36.7,30.1 37.1,30.3 37.2,30.5Z" style="fill:rgb(114,235,173);"/>
</svg>
